<svg xmlns="http://www.w3.org/2000/svg" width="1200" height="720" viewBox="0 0 1200 720"><rect width="1200" height="720" fill="#f7f7f8"/><rect width="1200" height="76" fill="#1f2937"/><text x="40" y="48" font-family="Arial" font-size="28" fill="white">House Price Prediction &amp; Market Analytics</text><rect x="30" y="105" width="1140" height="95" rx="12" fill="white" stroke="#d1d5db"/><g font-family="Arial"><text x="55" y="135" font-size="14" fill="#6b7280">HOUSING AREAS</text><text x="55" y="175" font-size="28" fill="#111827">20,640</text><text x="340" y="135" font-size="14" fill="#6b7280">AVERAGE VALUE</text><text x="340" y="175" font-size="28" fill="#111827">$206,855</text><text x="625" y="135" font-size="14" fill="#6b7280">MEDIAN VALUE</text><text x="625" y="175" font-size="28" fill="#111827">$179,700</text><text x="910" y="135" font-size="14" fill="#6b7280">MODEL R²</text><text x="910" y="175" font-size="28" fill="#111827">~0.8</text></g><rect x="30" y="225" width="555" height="300" rx="12" fill="white" stroke="#d1d5db"/><text x="55" y="260" font-family="Arial" font-size="20" fill="#111827">House-value distribution</text><polyline points="60,475 100,450 140,420 180,350 220,300 260,325 300,370 340,410 380,440 420,458 460,468 500,474 550,478" fill="none" stroke="#2563eb" stroke-width="4"/><rect x="610" y="225" width="560" height="300" rx="12" fill="white" stroke="#d1d5db"/><text x="635" y="260" font-family="Arial" font-size="20" fill="#111827">Top model drivers</text><g fill="#2563eb"><rect x="650" y="300" width="410" height="28"/><rect x="650" y="345" width="310" height="28"/><rect x="650" y="390" width="245" height="28"/><rect x="650" y="435" width="190" height="28"/></g><g font-family="Arial" font-size="14" fill="#374151"><text x="650" y="295">MedInc</text><text x="650" y="340">Latitude</text><text x="650" y="385">AveOccup</text><text x="650" y="430">HouseAge</text></g><rect x="30" y="550" width="1140" height="120" rx="12" fill="white" stroke="#d1d5db"/><text x="55" y="585" font-family="Arial" font-size="18" fill="#111827">Business interpretation</text><text x="55" y="615" font-family="Arial" font-size="15" fill="#166534">Opportunity: prioritize deeper research around the strongest price drivers.</text><text x="55" y="640" font-family="Arial" font-size="15" fill="#92400e">Risk: historical data may not reflect current market conditions.</text><text x="55" y="665" font-family="Arial" font-size="15" fill="#1d4ed8">Action: use predictions as decision support, not professional appraisal.</text></svg>